solid OpenSCAD_Model
  facet normal 0.98481 -0.173637 0
    outer loop
      vertex 5.71576 4.67499 3.3
      vertex 5.77515 5.01183 0
      vertex 5.77515 5.01183 3.3
    endloop
  endfacet
  facet normal 0.98481 -0.173637 0
    outer loop
      vertex 5.77515 5.01183 0
      vertex 5.71576 4.67499 3.3
      vertex 5.71576 4.67499 0
    endloop
  endfacet
  facet normal 0.866025 0.500001 0
    outer loop
      vertex 5.77515 5.01183 3.3
      vertex 5.60415 5.30801 0
      vertex 5.60415 5.30801 3.3
    endloop
  endfacet
  facet normal 0.866025 0.500001 0
    outer loop
      vertex 5.60415 5.30801 0
      vertex 5.77515 5.01183 3.3
      vertex 5.77515 5.01183 0
    endloop
  endfacet
  facet normal -0.984803 -0.173675 0
    outer loop
      vertex -5.71575 4.675 0
      vertex -5.77515 5.01182 3.3
      vertex -5.77515 5.01182 0
    endloop
  endfacet
  facet normal -0.984803 -0.173675 0
    outer loop
      vertex -5.77515 5.01182 3.3
      vertex -5.71575 4.675 0
      vertex -5.71575 4.675 3.3
    endloop
  endfacet
  facet normal 0.342046 0.939683 0
    outer loop
      vertex 5.60415 5.30801 3.3
      vertex 5.28275 5.425 0
      vertex 5.28275 5.425 3.3
    endloop
  endfacet
  facet normal 0.342046 0.939683 0
    outer loop
      vertex 5.28275 5.425 0
      vertex 5.60415 5.30801 3.3
      vertex 5.60415 5.30801 0
    endloop
  endfacet
  facet normal -0.866026 -0.5 0
    outer loop
      vertex -0.433007 -4.47499 0
      vertex -5.71575 4.675 3.3
      vertex -5.71575 4.675 0
    endloop
  endfacet
  facet normal -0.866026 -0.5 0
    outer loop
      vertex -5.71575 4.675 3.3
      vertex -0.433007 -4.47499 0
      vertex -0.433007 -4.47499 3.3
    endloop
  endfacet
  facet normal 0.642776 -0.766054 0
    outer loop
      vertex 0.171016 -4.69483 0
      vertex 0.433019 -4.47499 3.3
      vertex 0.171016 -4.69483 3.3
    endloop
  endfacet
  facet normal 0.642776 -0.766054 0
    outer loop
      vertex 0.433019 -4.47499 3.3
      vertex 0.171016 -4.69483 0
      vertex 0.433019 -4.47499 0
    endloop
  endfacet
  facet normal 0 1 -0
    outer loop
      vertex 5.28275 5.425 0
      vertex -5.28274 5.425 3.3
      vertex 5.28275 5.425 3.3
    endloop
  endfacet
  facet normal 0 1 0
    outer loop
      vertex -5.28274 5.425 3.3
      vertex 5.28275 5.425 0
      vertex -5.28274 5.425 0
    endloop
  endfacet
  facet normal 0.866026 -0.5 0
    outer loop
      vertex 0.433019 -4.47499 0
      vertex 5.71576 4.67499 3.3
      vertex 0.433019 -4.47499 3.3
    endloop
  endfacet
  facet normal 0.866026 -0.5 0
    outer loop
      vertex 5.71576 4.67499 3.3
      vertex 0.433019 -4.47499 0
      vertex 5.71576 4.67499 0
    endloop
  endfacet
  facet normal 0 0 -1
    outer loop
      vertex 5.25554 4.71183 0
      vertex 5.77515 5.01183 0
      vertex 5.71576 4.67499 0
    endloop
  endfacet
  facet normal -0 0 -1
    outer loop
      vertex 5.77515 5.01183 0
      vertex 5.25554 4.71183 0
      vertex 5.60415 5.30801 0
    endloop
  endfacet
  facet normal 0 0 -1
    outer loop
      vertex 5.08454 5.00802 0
      vertex 5.60415 5.30801 0
      vertex 5.25554 4.71183 0
    endloop
  endfacet
  facet normal -0 0 -1
    outer loop
      vertex 5.71576 4.67499 0
      vertex 5.19615 4.375 0
      vertex 5.25554 4.71183 0
    endloop
  endfacet
  facet normal 0 0 -1
    outer loop
      vertex 5.71576 4.67499 0
      vertex 0.433005 -3.87499 0
      vertex 5.19615 4.375 0
    endloop
  endfacet
  facet normal 0 0 -1
    outer loop
      vertex 0.433019 -4.47499 0
      vertex 0.433005 -3.87499 0
      vertex 5.71576 4.67499 0
    endloop
  endfacet
  facet normal 0 0 -1
    outer loop
      vertex 0.433019 -4.47499 0
      vertex 0.171001 -4.09483 0
      vertex 0.433005 -3.87499 0
    endloop
  endfacet
  facet normal 0 0 -1
    outer loop
      vertex 0.171016 -4.69483 0
      vertex 0.171001 -4.09483 0
      vertex 0.433019 -4.47499 0
    endloop
  endfacet
  facet normal 0 -0 -1
    outer loop
      vertex 0.171001 -4.09483 0
      vertex 0.171016 -4.69483 0
      vertex -0.171021 -4.09484 0
    endloop
  endfacet
  facet normal 0 0 -1
    outer loop
      vertex -0.171007 -4.69484 0
      vertex -0.171021 -4.09484 0
      vertex 0.171016 -4.69483 0
    endloop
  endfacet
  facet normal 0 -0 -1
    outer loop
      vertex -0.171021 -4.09484 0
      vertex -0.171007 -4.69484 0
      vertex -0.433007 -4.47499 0
    endloop
  endfacet
  facet normal -0 0 -1
    outer loop
      vertex 5.60415 5.30801 0
      vertex 5.08454 5.00802 0
      vertex 5.28275 5.425 0
    endloop
  endfacet
  facet normal 0 0 -1
    outer loop
      vertex 4.76314 5.125 0
      vertex 5.28275 5.425 0
      vertex 5.08454 5.00802 0
    endloop
  endfacet
  facet normal 0 0 -1
    outer loop
      vertex -4.76312 5.12499 0
      vertex 5.28275 5.425 0
      vertex 4.76314 5.125 0
    endloop
  endfacet
  facet normal 0 0 -1
    outer loop
      vertex -4.76312 5.12499 0
      vertex -5.28274 5.425 0
      vertex 5.28275 5.425 0
    endloop
  endfacet
  facet normal 0 0 -1
    outer loop
      vertex -5.08451 5.00801 0
      vertex -5.28274 5.425 0
      vertex -4.76312 5.12499 0
    endloop
  endfacet
  facet normal 0 0 -1
    outer loop
      vertex -5.60413 5.30802 0
      vertex -5.08451 5.00801 0
      vertex -5.25553 4.71182 0
    endloop
  endfacet
  facet normal 0 0 -1
    outer loop
      vertex -5.08451 5.00801 0
      vertex -5.60413 5.30802 0
      vertex -5.28274 5.425 0
    endloop
  endfacet
  facet normal 0 0 -1
    outer loop
      vertex -5.71575 4.675 0
      vertex -5.25553 4.71182 0
      vertex -5.19613 4.37499 0
    endloop
  endfacet
  facet normal -0 0 -1
    outer loop
      vertex -0.171021 -4.09484 0
      vertex -0.433007 -4.47499 0
      vertex -0.433021 -3.87499 0
    endloop
  endfacet
  facet normal 0 0 -1
    outer loop
      vertex -5.77515 5.01182 0
      vertex -5.25553 4.71182 0
      vertex -5.71575 4.675 0
    endloop
  endfacet
  facet normal -0 -0 -1
    outer loop
      vertex -0.433021 -3.87499 0
      vertex -0.433007 -4.47499 0
      vertex -5.19613 4.37499 0
    endloop
  endfacet
  facet normal 0 0 -1
    outer loop
      vertex -5.71575 4.675 0
      vertex -5.19613 4.37499 0
      vertex -0.433007 -4.47499 0
    endloop
  endfacet
  facet normal 0 0 -1
    outer loop
      vertex -5.25553 4.71182 0
      vertex -5.77515 5.01182 0
      vertex -5.60413 5.30802 0
    endloop
  endfacet
  facet normal -0.642798 -0.766036 0
    outer loop
      vertex -0.171007 -4.69484 0
      vertex -0.433007 -4.47499 3.3
      vertex -0.433007 -4.47499 0
    endloop
  endfacet
  facet normal -0.642798 -0.766036 0
    outer loop
      vertex -0.433007 -4.47499 3.3
      vertex -0.171007 -4.69484 0
      vertex -0.171007 -4.69484 3.3
    endloop
  endfacet
  facet normal 2.92378e-05 -1 0
    outer loop
      vertex -0.171007 -4.69484 0
      vertex 0.171016 -4.69483 3.3
      vertex -0.171007 -4.69484 3.3
    endloop
  endfacet
  facet normal 2.92378e-05 -1 0
    outer loop
      vertex 0.171016 -4.69483 3.3
      vertex -0.171007 -4.69484 0
      vertex 0.171016 -4.69483 0
    endloop
  endfacet
  facet normal 0 0 1
    outer loop
      vertex 5.08454 5.00802 3.3
      vertex 5.60415 5.30801 3.3
      vertex 5.28275 5.425 3.3
    endloop
  endfacet
  facet normal 0 0 1
    outer loop
      vertex 5.60415 5.30801 3.3
      vertex 5.08454 5.00802 3.3
      vertex 5.77515 5.01183 3.3
    endloop
  endfacet
  facet normal 0 -0 1
    outer loop
      vertex 5.25554 4.71183 3.3
      vertex 5.77515 5.01183 3.3
      vertex 5.08454 5.00802 3.3
    endloop
  endfacet
  facet normal 0 0 1
    outer loop
      vertex 5.28275 5.425 3.3
      vertex 4.76314 5.125 3.3
      vertex 5.08454 5.00802 3.3
    endloop
  endfacet
  facet normal 0 0 1
    outer loop
      vertex 5.28275 5.425 3.3
      vertex -4.76312 5.12499 3.3
      vertex 4.76314 5.125 3.3
    endloop
  endfacet
  facet normal -0 0 1
    outer loop
      vertex -5.28274 5.425 3.3
      vertex -4.76312 5.12499 3.3
      vertex 5.28275 5.425 3.3
    endloop
  endfacet
  facet normal 0 0 1
    outer loop
      vertex -5.28274 5.425 3.3
      vertex -5.08451 5.00801 3.3
      vertex -4.76312 5.12499 3.3
    endloop
  endfacet
  facet normal -0 0 1
    outer loop
      vertex -5.60413 5.30802 3.3
      vertex -5.08451 5.00801 3.3
      vertex -5.28274 5.425 3.3
    endloop
  endfacet
  facet normal 0 0 1
    outer loop
      vertex -5.08451 5.00801 3.3
      vertex -5.60413 5.30802 3.3
      vertex -5.25553 4.71182 3.3
    endloop
  endfacet
  facet normal -0 0 1
    outer loop
      vertex -5.77515 5.01182 3.3
      vertex -5.25553 4.71182 3.3
      vertex -5.60413 5.30802 3.3
    endloop
  endfacet
  facet normal 0 0 1
    outer loop
      vertex -5.25553 4.71182 3.3
      vertex -5.71575 4.675 3.3
      vertex -5.19613 4.37499 3.3
    endloop
  endfacet
  facet normal 0 0 1
    outer loop
      vertex -5.25553 4.71182 3.3
      vertex -5.77515 5.01182 3.3
      vertex -5.71575 4.675 3.3
    endloop
  endfacet
  facet normal 0 0 1
    outer loop
      vertex 5.77515 5.01183 3.3
      vertex 5.25554 4.71183 3.3
      vertex 5.71576 4.67499 3.3
    endloop
  endfacet
  facet normal 0 0 1
    outer loop
      vertex 5.19615 4.375 3.3
      vertex 5.71576 4.67499 3.3
      vertex 5.25554 4.71183 3.3
    endloop
  endfacet
  facet normal 0 0 1
    outer loop
      vertex 0.433005 -3.87499 3.3
      vertex 5.71576 4.67499 3.3
      vertex 5.19615 4.375 3.3
    endloop
  endfacet
  facet normal -0 0 1
    outer loop
      vertex 0.433005 -3.87499 3.3
      vertex 0.433019 -4.47499 3.3
      vertex 5.71576 4.67499 3.3
    endloop
  endfacet
  facet normal -0 0 1
    outer loop
      vertex 0.171001 -4.09483 3.3
      vertex 0.433019 -4.47499 3.3
      vertex 0.433005 -3.87499 3.3
    endloop
  endfacet
  facet normal 0 0 1
    outer loop
      vertex 0.171016 -4.69483 3.3
      vertex 0.171001 -4.09483 3.3
      vertex -0.171021 -4.09484 3.3
    endloop
  endfacet
  facet normal 0 0 1
    outer loop
      vertex 0.171001 -4.09483 3.3
      vertex 0.171016 -4.69483 3.3
      vertex 0.433019 -4.47499 3.3
    endloop
  endfacet
  facet normal 0 -0 1
    outer loop
      vertex -0.433007 -4.47499 3.3
      vertex -0.171021 -4.09484 3.3
      vertex -0.433021 -3.87499 3.3
    endloop
  endfacet
  facet normal 0 0 1
    outer loop
      vertex -0.171007 -4.69484 3.3
      vertex -0.171021 -4.09484 3.3
      vertex -0.433007 -4.47499 3.3
    endloop
  endfacet
  facet normal 0 0 1
    outer loop
      vertex -5.19613 4.37499 3.3
      vertex -5.71575 4.675 3.3
      vertex -0.433021 -3.87499 3.3
    endloop
  endfacet
  facet normal 0 0 1
    outer loop
      vertex -0.433007 -4.47499 3.3
      vertex -0.433021 -3.87499 3.3
      vertex -5.71575 4.675 3.3
    endloop
  endfacet
  facet normal 0 0 1
    outer loop
      vertex -0.171021 -4.09484 3.3
      vertex -0.171007 -4.69484 3.3
      vertex 0.171016 -4.69483 3.3
    endloop
  endfacet
  facet normal -0.866014 0.500019 0
    outer loop
      vertex -5.60413 5.30802 0
      vertex -5.77515 5.01182 3.3
      vertex -5.60413 5.30802 3.3
    endloop
  endfacet
  facet normal -0.866014 0.500019 0
    outer loop
      vertex -5.77515 5.01182 3.3
      vertex -5.60413 5.30802 0
      vertex -5.77515 5.01182 0
    endloop
  endfacet
  facet normal -0.342029 0.939689 0
    outer loop
      vertex -5.28274 5.425 0
      vertex -5.60413 5.30802 3.3
      vertex -5.28274 5.425 3.3
    endloop
  endfacet
  facet normal -0.342029 0.939689 0
    outer loop
      vertex -5.60413 5.30802 3.3
      vertex -5.28274 5.425 0
      vertex -5.60413 5.30802 0
    endloop
  endfacet
  facet normal -0.984809 0.173642 0
    outer loop
      vertex 5.19615 4.375 0
      vertex 5.25554 4.71183 3.3
      vertex 5.25554 4.71183 0
    endloop
  endfacet
  facet normal -0.984809 0.173642 0
    outer loop
      vertex 5.25554 4.71183 3.3
      vertex 5.19615 4.375 0
      vertex 5.19615 4.375 3.3
    endloop
  endfacet
  facet normal -0.866025 0.500001 0
    outer loop
      vertex 5.19615 4.375 0
      vertex 0.433005 -3.87499 3.3
      vertex 5.19615 4.375 3.3
    endloop
  endfacet
  facet normal -0.866025 0.500001 0
    outer loop
      vertex 0.433005 -3.87499 3.3
      vertex 5.19615 4.375 0
      vertex 0.433005 -3.87499 0
    endloop
  endfacet
  facet normal -0.866032 -0.499988 0
    outer loop
      vertex 5.25554 4.71183 0
      vertex 5.08454 5.00802 3.3
      vertex 5.08454 5.00802 0
    endloop
  endfacet
  facet normal -0.866032 -0.499988 0
    outer loop
      vertex 5.08454 5.00802 3.3
      vertex 5.25554 4.71183 0
      vertex 5.25554 4.71183 3.3
    endloop
  endfacet
  facet normal 0.866026 0.499998 0
    outer loop
      vertex -0.433021 -3.87499 3.3
      vertex -5.19613 4.37499 0
      vertex -5.19613 4.37499 3.3
    endloop
  endfacet
  facet normal 0.866026 0.499998 0
    outer loop
      vertex -5.19613 4.37499 0
      vertex -0.433021 -3.87499 3.3
      vertex -0.433021 -3.87499 0
    endloop
  endfacet
  facet normal -0.34202 -0.939693 0
    outer loop
      vertex 5.08454 5.00802 0
      vertex 4.76314 5.125 3.3
      vertex 4.76314 5.125 0
    endloop
  endfacet
  facet normal -0.34202 -0.939693 0
    outer loop
      vertex 4.76314 5.125 3.3
      vertex 5.08454 5.00802 0
      vertex 5.08454 5.00802 3.3
    endloop
  endfacet
  facet normal -2.92379e-05 1 0
    outer loop
      vertex 0.171001 -4.09483 0
      vertex -0.171021 -4.09484 3.3
      vertex 0.171001 -4.09483 3.3
    endloop
  endfacet
  facet normal -2.92379e-05 1 0
    outer loop
      vertex -0.171021 -4.09484 3.3
      vertex 0.171001 -4.09483 0
      vertex -0.171021 -4.09484 0
    endloop
  endfacet
  facet normal 0.642798 0.766036 0
    outer loop
      vertex -0.171021 -4.09484 3.3
      vertex -0.433021 -3.87499 0
      vertex -0.433021 -3.87499 3.3
    endloop
  endfacet
  facet normal 0.642798 0.766036 0
    outer loop
      vertex -0.433021 -3.87499 0
      vertex -0.171021 -4.09484 3.3
      vertex -0.171021 -4.09484 0
    endloop
  endfacet
  facet normal -0.642775 0.766055 0
    outer loop
      vertex 0.433005 -3.87499 0
      vertex 0.171001 -4.09483 3.3
      vertex 0.433005 -3.87499 3.3
    endloop
  endfacet
  facet normal -0.642775 0.766055 0
    outer loop
      vertex 0.171001 -4.09483 3.3
      vertex 0.433005 -3.87499 0
      vertex 0.171001 -4.09483 0
    endloop
  endfacet
  facet normal 0.342029 -0.939689 0
    outer loop
      vertex -5.08451 5.00801 0
      vertex -4.76312 5.12499 3.3
      vertex -5.08451 5.00801 3.3
    endloop
  endfacet
  facet normal 0.342029 -0.939689 0
    outer loop
      vertex -4.76312 5.12499 3.3
      vertex -5.08451 5.00801 0
      vertex -4.76312 5.12499 0
    endloop
  endfacet
  facet normal 1.04973e-06 -1 0
    outer loop
      vertex -4.76312 5.12499 0
      vertex 4.76314 5.125 3.3
      vertex -4.76312 5.12499 3.3
    endloop
  endfacet
  facet normal 1.04973e-06 -1 0
    outer loop
      vertex 4.76314 5.125 3.3
      vertex -4.76312 5.12499 0
      vertex 4.76314 5.125 0
    endloop
  endfacet
  facet normal 0.984804 0.17367 0
    outer loop
      vertex -5.19613 4.37499 3.3
      vertex -5.25553 4.71182 0
      vertex -5.25553 4.71182 3.3
    endloop
  endfacet
  facet normal 0.984804 0.17367 0
    outer loop
      vertex -5.25553 4.71182 0
      vertex -5.19613 4.37499 3.3
      vertex -5.19613 4.37499 0
    endloop
  endfacet
  facet normal 0.866007 -0.500032 0
    outer loop
      vertex -5.25553 4.71182 0
      vertex -5.08451 5.00801 3.3
      vertex -5.25553 4.71182 3.3
    endloop
  endfacet
  facet normal 0.866007 -0.500032 0
    outer loop
      vertex -5.08451 5.00801 3.3
      vertex -5.25553 4.71182 0
      vertex -5.08451 5.00801 0
    endloop
  endfacet
endsolid OpenSCAD_Model
